<svg width="110" height="30" viewBox="0 0 110 30" fill="none" xmlns="http://www.w3.org/2000/svg">
<path d="M39.7216 23V5.54545H46.267C47.608 5.54545 48.733 5.79545 49.642 6.29545C50.5568 6.79545 51.2472 7.48295 51.7131 8.35795C52.1847 9.22727 52.4205 10.2159 52.4205 11.3239C52.4205 12.4432 52.1847 13.4375 51.7131 14.3068C51.2415 15.1761 50.5455 15.8608 49.625 16.3608C48.7045 16.8551 47.571 17.1023 46.2244 17.1023H41.8864V14.5028H45.7983C46.5824 14.5028 47.2244 14.3665 47.7244 14.0938C48.2244 13.821 48.5938 13.446 48.8324 12.9688C49.0767 12.4915 49.1989 11.9432 49.1989 11.3239C49.1989 10.7045 49.0767 10.1591 48.8324 9.6875C48.5938 9.21591 48.2216 8.84943 47.7159 8.58807C47.2159 8.32102 46.571 8.1875 45.7812 8.1875H42.8835V23H39.7216ZM55.0305 23V9.90909H58.022V12.0909H58.1584C58.397 11.3352 58.8061 10.7528 59.3857 10.3438C59.9709 9.92898 60.6385 9.72159 61.3885 9.72159C61.5589 9.72159 61.7493 9.73011 61.9595 9.74716C62.1754 9.75852 62.3544 9.77841 62.4964 9.80682V12.6449C62.3658 12.5994 62.1584 12.5597 61.8743 12.5256C61.5959 12.4858 61.326 12.4659 61.0646 12.4659C60.5021 12.4659 59.9964 12.5881 59.5476 12.8324C59.1044 13.071 58.755 13.4034 58.4993 13.8295C58.2436 14.2557 58.1158 14.7472 58.1158 15.304V23H55.0305ZM69.7173 23.2557C68.4389 23.2557 67.331 22.9744 66.3935 22.4119C65.456 21.8494 64.7287 21.0625 64.2116 20.0511C63.7003 19.0398 63.4446 17.858 63.4446 16.5057C63.4446 15.1534 63.7003 13.9687 64.2116 12.9517C64.7287 11.9347 65.456 11.1449 66.3935 10.5824C67.331 10.0199 68.4389 9.73864 69.7173 9.73864C70.9957 9.73864 72.1037 10.0199 73.0412 10.5824C73.9787 11.1449 74.7031 11.9347 75.2145 12.9517C75.7315 13.9687 75.9901 15.1534 75.9901 16.5057C75.9901 17.858 75.7315 19.0398 75.2145 20.0511C74.7031 21.0625 73.9787 21.8494 73.0412 22.4119C72.1037 22.9744 70.9957 23.2557 69.7173 23.2557ZM69.7344 20.7841C70.4276 20.7841 71.0071 20.5937 71.473 20.2131C71.9389 19.8267 72.2855 19.3097 72.5128 18.6619C72.7457 18.0142 72.8622 17.2926 72.8622 16.4972C72.8622 15.696 72.7457 14.9716 72.5128 14.3239C72.2855 13.6705 71.9389 13.1506 71.473 12.7642C71.0071 12.3778 70.4276 12.1847 69.7344 12.1847C69.0241 12.1847 68.4332 12.3778 67.9616 12.7642C67.4957 13.1506 67.1463 13.6705 66.9134 14.3239C66.6861 14.9716 66.5724 15.696 66.5724 16.4972C66.5724 17.2926 66.6861 18.0142 66.9134 18.6619C67.1463 19.3097 67.4957 19.8267 67.9616 20.2131C68.4332 20.5937 69.0241 20.7841 69.7344 20.7841ZM85.2393 9.90909V12.2955H77.5007V9.90909H85.2393ZM79.4354 23V8.67329C79.4354 7.79261 79.6172 7.05966 79.9808 6.47443C80.3501 5.8892 80.8445 5.4517 81.4638 5.16193C82.0831 4.87216 82.7706 4.72727 83.5263 4.72727C84.0604 4.72727 84.5348 4.76989 84.9496 4.85511C85.3643 4.94034 85.6712 5.01705 85.87 5.08523L85.2564 7.47159C85.1257 7.43182 84.9609 7.39204 84.7621 7.35227C84.5632 7.30682 84.3416 7.28409 84.0973 7.28409C83.5234 7.28409 83.1172 7.4233 82.8786 7.7017C82.6456 7.97443 82.5291 8.36648 82.5291 8.87784V23H79.4354Z" fill="#222222"/>
<path d="M89.1663 23.216C88.3183 23.216 87.6383 22.888 87.1263 22.232C86.6143 21.56 86.3583 20.616 86.3583 19.4C86.3583 18.344 86.5423 17.296 86.9103 16.256C87.2943 15.216 87.7903 14.272 88.3983 13.424C89.0063 12.576 89.6703 11.896 90.3903 11.384C91.1263 10.872 91.8383 10.616 92.5263 10.616C93.2783 10.616 93.8143 10.8 94.1343 11.168C94.4703 11.52 94.6383 12 94.6383 12.608C94.6383 13.328 94.3823 14.048 93.8703 14.768C93.3743 15.472 92.6703 16.104 91.7583 16.664C90.8623 17.224 89.8063 17.64 88.5903 17.912C88.2383 17.992 88.0543 18.192 88.0383 18.512C88.0223 18.624 88.0143 18.744 88.0143 18.872C88.0143 18.984 88.0143 19.096 88.0143 19.208C88.0143 20.12 88.1663 20.808 88.4703 21.272C88.7903 21.736 89.2223 21.968 89.7663 21.968C90.3743 21.968 90.9583 21.688 91.5183 21.128C92.0943 20.568 92.5743 19.776 92.9583 18.752C93.0063 18.608 93.1023 18.536 93.2463 18.536C93.3423 18.536 93.3983 18.576 93.4143 18.656C93.4463 18.736 93.4463 18.832 93.4143 18.944C92.9023 20.352 92.2783 21.416 91.5423 22.136C90.8223 22.856 90.0303 23.216 89.1663 23.216ZM88.2783 17C88.2463 17.112 88.2623 17.208 88.3263 17.288C88.4063 17.352 88.5023 17.368 88.6143 17.336C89.6063 17.064 90.4383 16.656 91.1103 16.112C91.7823 15.552 92.2863 14.928 92.6223 14.24C92.9743 13.552 93.1503 12.88 93.1503 12.224C93.1503 11.552 92.8863 11.216 92.3583 11.216C91.8943 11.216 91.3903 11.488 90.8463 12.032C90.3023 12.576 89.7983 13.288 89.3343 14.168C88.8703 15.048 88.5183 15.992 88.2783 17ZM97.8221 23.216C96.9421 23.216 96.2141 22.856 95.6381 22.136C95.0621 21.4 94.7741 20.464 94.7741 19.328C94.7741 18.256 94.9421 17.208 95.2781 16.184C95.6301 15.144 96.0941 14.208 96.6701 13.376C97.2621 12.528 97.9101 11.856 98.6141 11.36C99.3341 10.864 100.054 10.616 100.774 10.616C101.542 10.616 102.19 10.824 102.718 11.24C102.798 11.304 102.846 11.36 102.862 11.408C102.878 11.44 102.87 11.52 102.838 11.648L102.19 14.792C102.142 15.016 102.038 15.128 101.878 15.128C101.702 15.128 101.598 15.008 101.566 14.768L101.446 13.064C101.398 12.328 101.286 11.848 101.11 11.624C100.95 11.4 100.71 11.288 100.39 11.288C99.9421 11.288 99.4861 11.512 99.0221 11.96C98.5581 12.392 98.1261 12.984 97.7261 13.736C97.3421 14.472 97.0301 15.296 96.7901 16.208C96.5661 17.104 96.4541 18.016 96.4541 18.944C96.4541 20.96 97.1101 21.968 98.4221 21.968C99.0461 21.968 99.6061 21.68 100.102 21.104C100.614 20.528 101.086 19.632 101.518 18.416C101.566 18.256 101.678 18.176 101.854 18.176C101.95 18.176 102.006 18.216 102.022 18.296C102.038 18.36 102.022 18.496 101.974 18.704C101.814 19.584 101.526 20.36 101.11 21.032C100.694 21.704 100.198 22.24 99.6221 22.64C99.0621 23.024 98.4621 23.216 97.8221 23.216ZM107.724 8.48C107.42 8.48 107.164 8.376 106.956 8.168C106.764 7.944 106.668 7.68 106.668 7.376C106.668 6.944 106.796 6.6 107.052 6.344C107.324 6.088 107.628 5.96 107.964 5.96C108.284 5.96 108.548 6.064 108.756 6.272C108.98 6.464 109.092 6.72 109.092 7.04C109.092 7.488 108.956 7.84 108.684 8.096C108.412 8.352 108.092 8.48 107.724 8.48ZM105.756 23.24C105.228 23.24 104.852 23.048 104.628 22.664C104.404 22.264 104.396 21.616 104.604 20.72L106.38 13.112C106.46 12.76 106.468 12.488 106.404 12.296C106.356 12.088 106.212 11.984 105.972 11.984C105.684 11.984 105.364 12.2 105.012 12.632C104.676 13.048 104.292 13.848 103.86 15.032C103.796 15.24 103.684 15.344 103.524 15.344C103.284 15.344 103.22 15.2 103.332 14.912C103.684 13.808 104.052 12.944 104.436 12.32C104.836 11.696 105.236 11.256 105.636 11C106.036 10.744 106.404 10.616 106.74 10.616C107.3 10.616 107.692 10.816 107.916 11.216C108.14 11.6 108.148 12.24 107.94 13.136L106.164 20.744C106.084 21.096 106.068 21.376 106.116 21.584C106.18 21.776 106.332 21.872 106.572 21.872C106.86 21.872 107.172 21.664 107.508 21.248C107.86 20.816 108.252 20.008 108.684 18.824C108.748 18.616 108.86 18.512 109.02 18.512C109.26 18.512 109.324 18.656 109.212 18.944C108.876 20.032 108.5 20.896 108.084 21.536C107.684 22.16 107.284 22.6 106.884 22.856C106.484 23.112 106.108 23.24 105.756 23.24Z" fill="#222222" fill-opacity="0.3"/>
<g clip-path="url(#clip0_1_5513)">
<path d="M11.738 30L12.3529 19.4531L3.26203 25.2604L0 19.7396L9.70588 15L0 10.2604L3.26203 4.73958L12.3529 10.5469L11.738 0H18.2353L17.6471 10.5469L26.738 4.73958L30 10.2604L20.2674 15L30 19.7396L26.738 25.2604L17.6471 19.4531L18.2353 30H11.738Z" fill="#4431F3"/>
</g>
<defs>
<clipPath id="clip0_1_5513">
<rect width="30" height="30" fill="white"/>
</clipPath>
</defs>
</svg>
